
            <svg data-logo="logo" xmlns="http://www.w3.org/2000/svg" viewBox="0 0 135 41">
                <g id="logogram" transform="translate(0, 0)"><path fill-rule="evenodd" clip-rule="evenodd" d="M21.1517 0C32.4135 0 41.543 9.12947 41.543 20.3913C41.543 31.6532 32.4135 40.7827 21.1517 40.7827C9.88981 40.7827 0.760315 31.6532 0.760315 20.3913C0.760315 9.12947 9.88981 0 21.1517 0ZM40.7603 20.3913C40.7603 9.56177 31.9812 0.782621 21.1517 0.782621C20.2781 0.782621 19.418 0.839741 18.5746 0.950451C19.1195 0.902811 19.6709 0.878491 20.2281 0.878491C30.5763 0.878491 38.9652 9.26737 38.9652 19.6156C38.9652 29.9637 30.5763 38.3526 20.2281 38.3526C10.4311 38.3526 2.39031 30.8337 1.56148 21.2516C2.01173 31.682 10.6103 40 21.1517 40C31.9812 40 40.7603 31.2209 40.7603 20.3913ZM38.1825 19.6156C38.1825 9.69957 30.1441 1.66112 20.2281 1.66112C19.423 1.66112 18.6302 1.71412 17.8531 1.81681C18.3316 1.77655 18.8157 1.75601 19.3046 1.75601C28.7392 1.75601 36.3874 9.40427 36.3874 18.8388C36.3874 28.2734 28.7392 35.9216 19.3046 35.9216C10.3839 35.9216 3.06034 29.0839 2.28897 20.3637C2.68116 29.9327 10.5628 37.57 20.2281 37.57C30.1441 37.57 38.1825 29.5315 38.1825 19.6156ZM19.3046 2.53864C28.3069 2.53864 35.6048 9.83647 35.6048 18.8388C35.6048 27.8411 28.3069 35.1389 19.3046 35.1389C10.5109 35.1389 3.34349 28.1753 3.01614 19.4616C3.72289 27.3266 10.3322 33.4905 18.3812 33.4905C26.9015 33.4905 33.8087 26.5834 33.8087 18.063C33.8087 9.54257 26.9015 2.63548 18.3812 2.63548C17.9404 2.63548 17.5039 2.65397 17.0725 2.6902C17.8023 2.59027 18.5474 2.53864 19.3046 2.53864ZM33.026 18.063C33.026 9.97487 26.4693 3.41811 18.3812 3.41811C17.6978 3.41811 17.0253 3.46491 16.3669 3.55549C16.7264 3.52735 17.0898 3.51302 17.4566 3.51302C25.0634 3.51302 31.2299 9.67947 31.2299 17.2863C31.2299 24.893 25.0634 31.0595 17.4566 31.0595C10.2969 31.0595 4.41323 25.5966 3.74632 18.6117C4.03485 26.4456 10.4767 32.7079 18.3812 32.7079C26.4693 32.7079 33.026 26.1512 33.026 18.063ZM17.4566 4.29564C24.6311 4.29564 30.4472 10.1118 30.4472 17.2863C30.4472 24.4608 24.6311 30.2769 17.4566 30.2769C10.4234 30.2769 4.69567 24.6877 4.47273 17.7087C5.07486 23.8389 10.2446 28.6285 16.5331 28.6285C23.2263 28.6285 28.6521 23.2026 28.6521 16.5095C28.6521 9.81637 23.2263 4.39053 16.5331 4.39053C16.2262 4.39053 15.9219 4.40194 15.6207 4.42436C16.2205 4.33952 16.8334 4.29564 17.4566 4.29564ZM27.8695 16.5095C27.8695 10.2486 22.794 5.17316 16.5331 5.17316C15.9616 5.17316 15.4 5.21545 14.8512 5.29707C15.1017 5.27913 15.3546 5.27 15.6097 5.27C21.3886 5.27 26.0734 9.95477 26.0734 15.7337C26.0734 21.5127 21.3886 26.1974 15.6097 26.1974C10.1944 26.1974 5.74004 22.0839 5.20071 16.8111C5.3606 22.9326 10.3731 27.8459 16.5331 27.8459C22.794 27.8459 27.8695 22.7704 27.8695 16.5095ZM15.6097 6.05263C20.9564 6.05263 25.2907 10.387 25.2907 15.7337C25.2907 21.0805 20.9564 25.4148 15.6097 25.4148C10.3309 25.4148 6.03903 21.1901 5.93064 15.9374C6.41827 20.3413 10.1522 23.7664 14.6862 23.7664C19.5515 23.7664 23.4956 19.8223 23.4956 14.957C23.4956 10.0917 19.5515 6.14752 14.6862 6.14752C14.5001 6.14752 14.3154 6.15329 14.1322 6.16466C14.6139 6.09089 15.1073 6.05263 15.6097 6.05263ZM22.713 14.957C22.713 10.5239 19.1193 6.93015 14.6862 6.93015C14.241 6.93015 13.8043 6.96639 13.3788 7.03608C13.5056 7.0294 13.6332 7.02602 13.7617 7.02602C17.7133 7.02602 20.9168 10.2295 20.9168 14.1812C20.9168 18.1329 17.7133 21.3364 13.7617 21.3364C10.1077 21.3364 7.09347 18.5974 6.65999 15.0606C6.71549 19.446 10.2877 22.9838 14.6862 22.9838C19.1193 22.9838 22.713 19.3901 22.713 14.957ZM13.7617 7.80864C17.2811 7.80864 20.1342 10.6617 20.1342 14.1812C20.1342 17.7007 17.2811 20.5537 13.7617 20.5537C10.2422 20.5537 7.3891 17.7007 7.3891 14.1812C7.3891 14.1728 7.38912 14.1643 7.38915 14.1559C7.75557 16.8379 10.0555 18.9044 12.8382 18.9044C15.8757 18.9044 18.3381 16.442 18.3381 13.4045C18.3381 10.3669 15.8757 7.90453 12.8382 7.90453C12.7695 7.90453 12.7011 7.90578 12.633 7.90828C12.9993 7.84281 13.3765 7.80864 13.7617 7.80864ZM17.5554 13.4045C17.5554 10.7992 15.4435 8.68715 12.8382 8.68715C10.2329 8.68715 8.12087 10.7992 8.12087 13.4045C8.12087 16.0097 10.2329 18.1217 12.8382 18.1217C15.4435 18.1217 17.5554 16.0097 17.5554 13.4045Z" fill="#1A1414"/></g>
                <g id="logotype" transform="translate(43, 7)"><path fill="#000000" d="M6.24 22.20L2.58 22.20L2.58 4.74L6.57 4.74L12.09 13.57Q12.51 14.25 12.94 15.05Q13.38 15.85 13.83 16.82Q14.28 17.79 14.72 19.01L14.72 19.01L14.36 19.01Q14.28 18.04 14.21 16.94Q14.15 15.84 14.10 14.83Q14.05 13.82 14.05 13.12L14.05 13.12L14.05 4.74L17.71 4.74L17.71 22.20L13.71 22.20L8.70 14.18Q8.15 13.28 7.68 12.43Q7.21 11.58 6.70 10.55Q6.19 9.52 5.49 8.10L5.49 8.10L5.95 8.10Q6.02 9.37 6.09 10.53Q6.16 11.69 6.20 12.63Q6.24 13.57 6.24 14.17L6.24 14.17L6.24 22.20ZM24.19 22.46L24.19 22.46Q22.94 22.46 21.95 22.02Q20.96 21.58 20.39 20.71Q19.83 19.83 19.83 18.53L19.83 18.53Q19.83 17.44 20.23 16.70Q20.63 15.97 21.33 15.52Q22.03 15.07 22.91 14.84Q23.80 14.61 24.77 14.51L24.77 14.51Q25.91 14.40 26.61 14.30Q27.30 14.20 27.62 13.98Q27.95 13.76 27.95 13.34L27.95 13.34L27.95 13.28Q27.95 12.72 27.71 12.33Q27.48 11.95 27.02 11.74Q26.56 11.54 25.90 11.54L25.90 11.54Q25.22 11.54 24.71 11.74Q24.21 11.95 23.89 12.29Q23.58 12.63 23.42 13.05L23.42 13.05L20.20 12.51Q20.54 11.37 21.33 10.57Q22.11 9.78 23.28 9.36Q24.44 8.93 25.90 8.93L25.90 8.93Q26.96 8.93 27.96 9.19Q28.95 9.44 29.75 9.97Q30.54 10.49 31.00 11.34Q31.46 12.18 31.46 13.38L31.46 13.38L31.46 22.20L28.13 22.20L28.13 20.38L28.02 20.38Q27.70 20.99 27.17 21.46Q26.65 21.92 25.90 22.19Q25.16 22.46 24.19 22.46ZM25.18 19.99L25.18 19.99Q26.01 19.99 26.64 19.66Q27.27 19.33 27.62 18.77Q27.97 18.20 27.97 17.51L27.97 17.51L27.97 16.09Q27.82 16.21 27.50 16.31Q27.19 16.40 26.80 16.47Q26.41 16.54 26.04 16.60Q25.66 16.66 25.37 16.69L25.37 16.69Q24.72 16.79 24.23 17.00Q23.74 17.21 23.47 17.55Q23.20 17.90 23.20 18.44L23.20 18.44Q23.20 18.94 23.46 19.29Q23.72 19.63 24.16 19.81Q24.60 19.99 25.18 19.99ZM41.53 22.42L41.53 22.42Q40.47 22.42 39.73 22.06Q38.99 21.70 38.53 21.16Q38.07 20.63 37.82 20.10L37.82 20.10L37.66 20.10L37.66 22.20L34.20 22.20L34.20 4.74L37.71 4.74L37.71 11.30L37.82 11.30Q38.07 10.79 38.52 10.24Q38.97 9.68 39.71 9.31Q40.44 8.93 41.56 8.93L41.56 8.93Q43.01 8.93 44.22 9.68Q45.43 10.43 46.15 11.93Q46.87 13.43 46.87 15.67L46.87 15.67Q46.87 17.85 46.16 19.36Q45.46 20.86 44.25 21.64Q43.05 22.42 41.53 22.42ZM40.46 19.60L40.46 19.60Q41.37 19.60 42.00 19.09Q42.62 18.59 42.95 17.70Q43.27 16.81 43.27 15.66L43.27 15.66Q43.27 14.51 42.95 13.63Q42.62 12.75 42.00 12.25Q41.38 11.75 40.46 11.75L40.46 11.75Q39.55 11.75 38.92 12.23Q38.29 12.72 37.96 13.59Q37.63 14.47 37.63 15.66L37.63 15.66Q37.63 16.84 37.97 17.73Q38.30 18.61 38.93 19.11Q39.57 19.60 40.46 19.60ZM53.58 22.36L53.58 22.36Q52.22 22.36 51.20 21.77Q50.18 21.18 49.62 20.07Q49.06 18.97 49.06 17.43L49.06 17.43L49.06 9.10L52.58 9.10L52.58 16.82Q52.58 18.04 53.21 18.73Q53.84 19.42 54.95 19.42L54.95 19.42Q55.70 19.42 56.27 19.10Q56.84 18.78 57.17 18.16Q57.49 17.55 57.49 16.68L57.49 16.68L57.49 9.10L61.00 9.10L61.00 22.20L57.69 22.20L57.64 18.93L57.84 18.93Q57.33 20.58 56.26 21.47Q55.20 22.36 53.58 22.36ZM67.26 14.62L67.26 14.62L67.26 22.20L63.74 22.20L63.74 9.10L67.06 9.10L67.12 12.37L66.90 12.37Q67.42 10.73 68.47 9.83Q69.52 8.93 71.18 8.93L71.18 8.93Q72.54 8.93 73.55 9.53Q74.56 10.12 75.12 11.23Q75.68 12.33 75.68 13.87L75.68 13.87L75.68 22.20L72.17 22.20L72.17 14.48Q72.17 13.26 71.54 12.57Q70.91 11.88 69.80 11.88L69.80 11.88Q69.06 11.88 68.48 12.20Q67.90 12.52 67.58 13.13Q67.26 13.74 67.26 14.62ZM84.23 27.38L84.23 27.38Q82.60 27.38 81.38 26.96Q80.16 26.55 79.40 25.82Q78.64 25.09 78.35 24.17L78.35 24.17L81.37 23.32Q81.54 23.69 81.88 24.03Q82.23 24.38 82.80 24.60Q83.38 24.82 84.22 24.82L84.22 24.82Q85.57 24.82 86.33 24.21Q87.10 23.59 87.10 22.29L87.10 22.29L87.10 19.88L86.83 19.88Q86.60 20.41 86.15 20.90Q85.71 21.39 84.99 21.70Q84.27 22.01 83.20 22.01L83.20 22.01Q81.72 22.01 80.52 21.32Q79.31 20.63 78.59 19.21Q77.87 17.79 77.87 15.63L77.87 15.63Q77.87 13.41 78.60 11.92Q79.33 10.43 80.55 9.68Q81.76 8.93 83.21 8.93L83.21 8.93Q84.31 8.93 85.06 9.30Q85.81 9.67 86.28 10.23Q86.74 10.79 86.97 11.30L86.97 11.30L87.13 11.30L87.13 9.10L90.58 9.10L90.58 22.09Q90.58 23.86 89.77 25.04Q88.95 26.22 87.52 26.80Q86.09 27.38 84.23 27.38ZM84.30 19.34L84.30 19.34Q85.20 19.34 85.83 18.90Q86.46 18.45 86.79 17.61Q87.11 16.77 87.11 15.60L87.11 15.60Q87.11 14.44 86.79 13.57Q86.46 12.71 85.83 12.23Q85.20 11.75 84.30 11.75L84.30 11.75Q83.38 11.75 82.75 12.24Q82.12 12.74 81.80 13.61Q81.48 14.48 81.48 15.60L81.48 15.60Q81.48 16.75 81.80 17.59Q82.12 18.43 82.75 18.88Q83.39 19.34 84.30 19.34Z"/></g>
                
            </svg>
        